HIERARCHY
ROOT root
{
	OFFSET 0.000000 0.000000 0.000000
	CHANNELS 6 Xposition Yposition Zposition Zrotation Yrotation Xrotation
	JOINT lhip
	{
		OFFSET 0.058581 -0.082280 -0.017664
		CHANNELS 3 Zrotation Yrotation Xrotation
		JOINT lknee
		{
			OFFSET 0.043451 -0.386469 0.008037
			CHANNELS 3 Zrotation Yrotation Xrotation
			JOINT lankle
			{
				OFFSET -0.014790 -0.426874 -0.037428
				CHANNELS 3 Zrotation Yrotation Xrotation
				JOINT ltoe
				{
					OFFSET 0.041054 -0.060286 0.122042
					CHANNELS 3 Zrotation Yrotation Xrotation
					End Site
					{
						OFFSET 0.000000 0.000000 0.000000
					}
				}
			}
		}
	}
	JOINT rhip
	{
		OFFSET -0.060310 -0.090513 -0.013543
		CHANNELS 3 Zrotation Yrotation Xrotation
		JOINT rknee
		{
			OFFSET -0.043257 -0.383688 -0.004843
			CHANNELS 3 Zrotation Yrotation Xrotation
			JOINT rankle
			{
				OFFSET 0.019056 -0.420046 -0.034562
				CHANNELS 3 Zrotation Yrotation Xrotation
				JOINT rtoe
				{
					OFFSET -0.034840 -0.062106 0.130323
					CHANNELS 3 Zrotation Yrotation Xrotation
					End Site
					{
						OFFSET 0.000000 0.000000 0.000000
					}
				}
			}
		}
	}
	JOINT lowerback
	{
		OFFSET 0.004439 0.124404 -0.038385
		CHANNELS 3 Zrotation Yrotation Xrotation
		JOINT upperback
		{
			OFFSET 0.004488 0.137956 0.026820
			CHANNELS 3 Zrotation Yrotation Xrotation
			JOINT chest
			{
				OFFSET -0.002265 0.056032 0.002855
				CHANNELS 3 Zrotation Yrotation Xrotation
				JOINT lowerneck
				{
					OFFSET -0.013390 0.211636 -0.033468
					CHANNELS 3 Zrotation Yrotation Xrotation
					JOINT upperneck
					{
						OFFSET 0.010113 0.088937 0.050410
						CHANNELS 3 Zrotation Yrotation Xrotation
						End Site
						{
							OFFSET 0.000000 0.000000 0.000000
						}
					}
				}
				JOINT lclavicle
				{
					OFFSET 0.071702 0.114000 -0.018898
					CHANNELS 3 Zrotation Yrotation Xrotation
					JOINT lshoulder
					{
						OFFSET 0.122921 0.045205 -0.019046
						CHANNELS 3 Zrotation Yrotation Xrotation
						JOINT lelbow
						{
							OFFSET 0.255332 -0.015649 -0.022946
							CHANNELS 3 Zrotation Yrotation Xrotation
							JOINT lwrist
							{
								OFFSET 0.265709 0.012698 -0.007375
								CHANNELS 3 Zrotation Yrotation Xrotation
								End Site
								{
									OFFSET 0.000000 0.000000 0.000000
								}
							}
						}
					}
				}
				JOINT rclavicle
				{
					OFFSET -0.082954 0.112472 -0.023707
					CHANNELS 3 Zrotation Yrotation Xrotation
					JOINT rshoulder
					{
						OFFSET -0.113228 0.046853 -0.008472
						CHANNELS 3 Zrotation Yrotation Xrotation
						JOINT relbow
						{
							OFFSET -0.260127 -0.014369 -0.031269
							CHANNELS 3 Zrotation Yrotation Xrotation
							JOINT rwrist
							{
								OFFSET -0.269108 0.006794 -0.006027
								CHANNELS 3 Zrotation Yrotation Xrotation
								End Site
								{
									OFFSET 0.000000 0.000000 0.000000
								}
							}
						}
					}
				}
			}
		}
	}
}
MOTION
Frames: 16
Frame Time: 0.033333
0.284872 0.750769 0.997599 0.973625 -2.123111 75.767328 -11.139153 -5.004780 7.377578 -6.592021 -15.774081 16.515152 14.613090 17.072317 -22.937126 0.000000 -0.000000 0.000000 -10.421249 0.505708 -30.147845 5.764271 -7.556593 92.641162 7.538148 -8.345706 11.920864 0.000000 -0.000000 0.000000 -2.064125 -5.387475 14.577027 1.878521 -2.154725 -0.700121 -1.492314 -3.168360 1.642787 -0.219464 4.431148 -8.491915 0.218355 3.625994 -0.820045 -23.670732 -4.197292 -0.901594 -45.388911 -14.191947 11.597231 10.953432 -48.828431 0.898253 -1.362172 -10.501819 -7.434133 24.089257 -4.628709 -2.079751 53.167918 -9.709428 14.000775 -15.713829 41.463444 -6.148969 12.344130 7.644126 -5.634214 
0.281687 0.716709 1.006065 4.070618 0.372074 73.774222 -8.009413 -2.291636 13.153831 -6.093117 -21.393661 14.631658 13.316631 16.158935 -23.602334 0.000000 -0.000000 0.000000 -10.410598 -0.475633 -38.462563 5.056471 -10.371543 93.023025 5.998860 -9.055572 11.439019 0.000000 -0.000000 0.000000 -1.428252 -8.779998 17.588445 2.461167 -2.736593 -1.243023 -0.528626 -4.532236 1.473626 -1.263668 5.215022 -8.656287 0.695426 4.536096 -1.078547 -21.963667 -6.651250 -1.014219 -44.521901 -18.734485 9.884362 14.720411 -49.202660 -3.191106 -0.175440 -9.884228 -9.007187 22.783774 -5.177257 -1.126358 53.387342 -12.988380 12.281694 -14.218989 38.947410 -4.768621 12.251040 7.432191 -6.058914 
0.278085 0.683073 1.011991 6.289274 2.558490 72.846710 -4.726792 -0.802773 17.246110 -5.665237 -25.218415 13.340460 12.015104 15.360851 -24.224438 0.000000 -0.000000 0.000000 -11.087037 -1.063395 -46.288195 4.244454 -12.710383 90.091301 5.169559 -10.534835 12.283574 0.000000 -0.000000 0.000000 -0.821387 -11.324705 19.415388 3.047815 -3.032529 -1.364067 0.282858 -5.605437 1.172988 -2.107027 5.832133 -8.940190 1.290500 5.111666 -1.455980 -19.971285 -8.729467 -0.938991 -43.150154 -23.160755 8.292896 18.391574 -49.190343 -7.443187 1.083570 -9.705064 -10.354585 21.577713 -5.821294 -0.092693 53.196350 -15.688358 11.442610 -12.833584 37.095691 -2.806962 12.471262 7.285641 -6.300270 
0.274069 0.649407 1.016433 7.539674 4.211747 72.448408 -1.790042 -0.020193 20.553882 -5.380282 -27.857544 12.150336 10.680510 14.851043 -24.649705 0.000000 -0.000000 0.000000 -11.970690 -1.036521 -52.562575 3.936689 -14.483713 84.760782 4.975454 -12.109623 13.979934 0.000000 -0.000000 0.000000 -0.315361 -13.140770 20.647962 3.412664 -3.017244 -1.448396 0.872239 -6.287946 0.917265 -2.724086 6.296527 -9.117515 1.997329 5.441367 -1.908944 -18.079365 -10.342121 -1.076930 -41.142696 -26.920203 6.935487 21.368700 -48.912910 -10.979527 2.243675 -9.688709 -11.011514 20.587597 -6.270045 0.781926 52.926739 -17.840054 11.264497 -11.331948 35.240762 -1.027021 12.618612 7.180983 -7.051715 
0.270135 0.615573 1.019663 8.119465 5.227605 72.265324 0.387720 0.406506 23.272552 -5.316896 -29.756671 11.537252 9.313000 14.572690 -24.915761 0.000000 -0.000000 0.000000 -12.613368 -0.613629 -56.743882 4.300930 -15.284952 78.259545 5.266982 -13.268740 15.838383 0.000000 -0.000000 0.000000 -0.088789 -14.427548 21.589120 3.563761 -2.941426 -1.646922 1.262313 -6.590559 0.889082 -3.227227 6.658470 -9.348270 2.622284 5.582782 -2.318671 -16.508537 -11.420502 -1.368081 -38.861224 -29.711537 5.513138 23.693339 -48.851094 -13.519172 2.711099 -9.680800 -10.991524 19.886291 -6.480738 1.390969 52.661202 -19.367857 11.385468 -10.057886 33.686173 0.971559 13.011594 7.089152 -7.086877 
0.266556 0.581818 1.021144 8.489826 5.635686 72.486369 1.569309 0.359051 25.069112 -5.474366 -31.152649 11.845527 7.980719 14.338393 -25.104598 0.000000 -0.000000 0.000000 -12.990333 -0.119347 -58.989108 4.442917 -15.333807 71.578978 5.690496 -14.400049 18.003137 0.000000 -0.000000 0.000000 -0.088034 -15.151924 21.955501 3.602786 -3.015959 -1.827207 1.519307 -6.747477 1.040303 -3.636157 6.860438 -9.718828 3.058312 5.630335 -2.615485 -15.234812 -11.967980 -1.650931 -36.954954 -31.833436 4.241893 25.489532 -48.904603 -15.420509 2.822839 -9.883366 -10.929356 19.306692 -6.694283 1.612316 52.525971 -20.250282 11.813882 -9.059231 32.675691 2.748791 13.334774 7.135601 -7.236936 
0.263563 0.548028 1.020813 8.807886 5.504325 72.936793 1.857141 0.041116 26.440360 -5.617514 -32.228594 12.511906 6.701187 14.072275 -25.129471 0.000000 -0.000000 0.000000 -13.023131 0.476315 -59.190249 4.294588 -14.809512 65.210935 6.074091 -15.582136 20.020292 0.000000 -0.000000 0.000000 -0.302085 -15.283343 21.754112 3.570395 -3.232420 -1.731635 1.681804 -6.876241 1.368696 -3.884617 6.924458 -10.226679 3.331190 5.568050 -2.881685 -14.281936 -12.296386 -1.860604 -35.649964 -33.412050 3.329318 27.011900 -49.018407 -16.977449 3.008640 -10.099741 -10.759690 18.916021 -6.762525 1.458903 52.665689 -20.615857 12.333643 -8.686762 32.180511 3.535326 13.705475 7.193112 -7.750566 
0.260849 0.513707 1.018588 9.061868 4.932670 73.777509 1.604441 -0.252081 27.382632 -5.782174 -32.863610 13.192341 5.523055 13.684774 -24.959621 0.000000 -0.000000 0.000000 -12.634159 1.212461 -57.815720 4.066818 -13.768637 59.474545 6.424965 -16.459005 22.076090 0.000000 -0.000000 0.000000 -0.664058 -15.048356 20.952390 3.495132 -3.458230 -1.567246 1.763864 -6.920793 1.681422 -3.961978 6.872386 -10.537933 3.447337 5.486480 -3.064939 -13.730716 -12.373599 -1.961828 -35.188095 -34.425848 2.987948 27.994271 -49.243264 -17.665679 3.219555 -10.233054 -10.220201 18.733743 -6.837237 1.146458 52.899893 -20.516630 12.826772 -8.720116 32.190527 3.713685 13.860433 7.184683 -8.299057 
0.258093 0.478528 1.014589 9.310904 4.106456 75.213392 1.133195 -0.562546 27.833425 -5.897657 -33.152301 13.580345 4.581877 13.123367 -24.600969 0.000000 -0.000000 0.000000 -11.778316 1.929389 -55.343066 3.689284 -12.459507 54.536990 6.386425 -17.286815 24.188263 0.000000 -0.000000 0.000000 -1.025662 -14.609961 19.388124 3.441936 -3.639034 -1.311232 1.816612 -6.859318 1.746653 -3.944234 6.610338 -10.604103 3.443467 5.510079 -3.070233 -13.623993 -12.175151 -2.007750 -35.647766 -34.874409 3.456657 27.940545 -49.629208 -17.095065 3.383218 -10.285248 -9.670321 18.692158 -7.013483 0.743740 53.093836 -20.133084 13.289151 -8.979300 32.788507 3.381852 13.878284 7.208435 -8.957169 
0.255113 0.441551 1.008822 9.705989 3.182937 77.062908 0.672605 -1.003210 28.193648 -5.840611 -33.373575 13.391629 3.827001 12.473106 -24.094160 0.000000 -0.000000 0.000000 -10.550968 2.386374 -51.798995 3.155763 -11.298659 50.546024 6.062368 -18.010744 26.506961 0.000000 -0.000000 0.000000 -1.403626 -14.047977 17.179132 3.466894 -3.817358 -0.969243 1.874301 -6.755799 1.746628 -3.861705 6.135500 -10.580448 3.325339 5.631688 -3.084726 -13.959087 -11.749372 -1.919353 -36.835480 -34.729249 4.630781 26.906156 -50.394132 -15.452861 3.535470 -10.231916 -9.313318 18.819357 -7.241100 0.255291 53.182513 -19.546750 13.766249 -9.501371 34.103008 2.553341 13.849820 7.301708 -9.674540 
0.251677 0.401987 1.001198 10.334168 2.205424 79.067030 0.303612 -1.495788 28.440428 -5.817037 -33.316491 13.296639 2.888187 11.662037 -23.280585 0.000000 -0.000000 0.000000 -9.094364 2.414538 -47.047243 2.966889 -10.520482 47.370027 6.314213 -17.742424 28.575924 0.000000 -0.000000 0.000000 -1.903645 -13.321919 14.516026 3.608053 -4.110641 -0.375889 1.955376 -6.640300 1.645761 -3.648066 5.757451 -10.529341 3.072498 5.622016 -3.215462 -14.623153 -11.148915 -1.725275 -38.653023 -33.832452 6.363846 24.943750 -51.582598 -12.881713 3.511314 -10.207391 -8.941824 19.140174 -7.472986 -0.316883 53.199467 -18.787573 14.198148 -10.184352 36.166225 1.469847 13.714595 7.456582 -10.474917 
0.247626 0.358823 0.992173 10.867518 1.069724 81.023874 -0.105359 -1.711949 28.212704 -6.063852 -32.398178 14.401481 1.069908 10.238597 -21.919227 0.000000 -0.000000 0.000000 -7.295520 1.907785 -40.939662 2.477791 -10.873822 45.006218 8.425925 -16.423016 25.471254 0.000000 -0.000000 0.000000 -2.641049 -12.159983 11.526154 3.810788 -4.586877 0.621994 2.035463 -6.483411 1.127257 -3.044864 6.221645 -10.199650 2.437136 4.863169 -3.340480 -15.493089 -10.443120 -1.414879 -41.096468 -31.811407 8.652013 22.283598 -52.862809 -9.099700 2.844706 -10.485664 -8.306907 19.724395 -7.532782 -0.886944 53.210318 -18.023251 14.272186 -10.897507 38.887610 0.673768 13.414128 7.754041 -11.250455 
0.241790 0.311863 0.982837 10.737554 0.439317 82.497336 1.174003 0.191822 26.275547 -7.532974 -31.078635 19.616031 -2.281495 6.317726 -18.934968 0.000000 -0.000000 0.000000 -3.884846 0.658160 -33.396926 1.353594 -10.729969 41.369910 8.687538 -12.403701 9.722008 0.000000 -0.000000 0.000000 -2.959759 -10.475185 9.233935 4.137750 -5.001559 1.090612 1.998813 -6.458452 0.197434 -1.674126 7.401831 -8.703257 0.663644 3.660390 -3.847426 -17.182732 -9.027430 -0.709410 -43.039702 -28.661725 9.718623 15.999184 -54.364312 0.022211 2.314430 -11.758737 -8.735582 20.889498 -7.669536 -0.550445 52.860142 -16.282673 13.523268 -11.305648 42.128912 2.274752 13.291684 8.841668 -12.617500 
0.235792 0.266180 0.975525 8.775448 -0.143702 83.366197 0.665433 0.617863 21.621186 -10.740984 -27.059069 29.694508 -6.053104 3.461029 -11.119654 0.000000 -0.000000 0.000000 -1.072652 1.022834 -27.575078 0.778929 -9.329205 36.747351 3.863300 -10.333292 -3.182852 0.000000 -0.000000 0.000000 -2.866854 -7.946009 8.340173 4.283347 -4.836859 0.790534 1.636406 -6.047677 -0.525077 -0.983141 8.395551 -8.809684 -0.090345 2.734734 -3.061857 -19.229144 -7.578021 -0.235374 -44.572213 -24.176649 11.631411 10.391218 -54.979169 7.872384 1.522693 -11.942000 -7.218595 22.417746 -7.138247 -0.701225 52.643413 -13.926258 13.853503 -12.319084 45.568709 2.844689 11.908802 9.326793 -15.259550 
0.230162 0.226149 0.973559 5.522377 0.164021 82.989507 -0.047900 -0.284831 13.402355 -14.280039 -19.294235 45.017452 -6.667412 1.478435 -0.114217 0.000000 -0.000000 0.000000 1.768813 2.685519 -23.663720 0.059492 -7.963199 35.211375 -0.261468 -10.057892 -7.890263 0.000000 -0.000000 0.000000 -1.849215 -5.495778 9.451545 4.505841 -4.108262 0.785868 1.077477 -5.072510 -1.132406 -1.041548 8.433514 -9.802625 -0.505400 2.817062 -2.853331 -21.255493 -6.485456 0.229918 -45.482718 -19.060419 12.949592 5.653907 -54.333207 14.382509 0.076245 -11.425190 -5.319508 24.023401 -4.944222 -0.706117 52.821058 -9.762147 14.410458 -14.732905 48.922517 1.658575 10.287892 9.384498 -16.590006 
0.225070 0.191103 0.976650 2.419835 0.582657 81.439906 -0.123779 -2.167963 2.934594 -15.685184 -8.865239 62.611195 -4.041924 2.125941 3.016636 0.000000 -0.000000 0.000000 4.154017 3.809607 -19.295982 -0.097970 -6.073256 34.731447 -2.271648 -10.057510 -9.995260 0.000000 -0.000000 0.000000 -1.139080 -2.787920 11.314600 4.814553 -3.713322 1.140208 0.721635 -4.127869 -0.491456 -1.056544 8.222761 -11.179991 -1.172908 3.060664 -2.849174 -22.337132 -6.219151 0.630782 -46.897342 -14.212108 13.109919 1.842242 -51.064344 19.530556 -0.764341 -10.554630 -3.906436 25.037467 -1.440189 -0.593532 53.081534 -3.416341 14.867559 -17.484350 52.168862 -0.248365 8.399534 9.229453 -16.981683 
